{"title":"Cradle of Champions 2018 720p WEB-DL x264 ESub [MW]","magnet":"magnet:?xt=urn:btih:088b0c542422d316e46db9e710cabca09b232580&dn=Cradle+of+Champions+2018+720p+WEB-DL+x264+ESub+%5BMW%5D&tr=udp%3A%2F%2Ftracker.leechers-paradise.org%3A6969&tr=udp%3A%2F%2Fzer0day.ch%3A1337&tr=udp%3A%2F%2Fopen.demonii.com%3A1337&tr=udp%3A%2F%2Ftracker.coppersurfer.tk%3A6969&tr=udp%3A%2F%2Fexodus.desync.com%3A6969","uploader":"MFreaky","categoryP":"video","categoryS":"hd___movies","size":"965872969","seeders":"8","leechers":"3","description":" <a href=\"https://pichub.site/image/EgMSu\" rel=\"nofollow\" target=\"_NEW\">https://pichub.site/image/EgMSu</a> <a href=\"\nhttps://pichub.site/image/EgYgR\" rel=\"nofollow\" target=\"_NEW\">\nhttps://pichub.site/image/EgYgR</a> <a href=\"\nhttps://pichub.site/image/EgaXs\" rel=\"nofollow\" target=\"_NEW\">\nhttps://pichub.site/image/EgaXs</a> <a href=\"\nhttps://pichub.site/image/EgOMB\" rel=\"nofollow\" target=\"_NEW\">\nhttps://pichub.site/image/EgOMB</a> <a href=\"\nhttps://pichub.site/image/EgRtY\" rel=\"nofollow\" target=\"_NEW\">\nhttps://pichub.site/image/EgRtY</a>\r\n\r\nIMDB <a href=\"\nhttps://www.imdb.com/title/tt5184272/\" rel=\"nofollow\" target=\"_NEW\">\nhttps://www.imdb.com/title/tt5184272/</a>\r\n\r\nVideo\r\nFormat                                   : AVC\r\nFormat/Info                              : Advanced Video Codec\r\nFormat profile                           : High@L4.1\r\nFormat settings                          : CABAC / 4 Ref Frames\r\nFormat settings, CABAC                   : Yes\r\nFormat settings, RefFrames               : 4 frames\r\nCodec ID                                 : V_MPEG4/ISO/AVC\r\nDuration                                 : 1 h 40 min\r\nBit rate                                 : 1 200 kb/s\r\nWidth                                    : 1 280 pixels\r\nHeight                                   : 720 pixels\r\nDisplay aspect ratio                     : 16:9\r\nFrame rate mode                          : Constant\r\nFrame rate                               : 23.976 (24000/1001) FPS\r\nColor space                              : YUV\r\nChroma subsampling                       : 4:2:0\r\nBit depth                                : 8 bits\r\nScan type                                : Progressive\r\nBits/(Pixel*Frame)                       : 0.054\r\nStream size                              : 851 MiB (92%)\r\nWriting library                          : x264 core 155 r2901 7d0ff22\r\n\r\nAudio\r\nFormat                                   : AAC\r\nFormat/Info                              : Advanced Audio Codec\r\nFormat profile                           : LC\r\nCodec ID                                 : A_AAC-2\r\nDuration                                 : 1 h 40 min\r\nBit rate                                 : 96.0 kb/s\r\nChannel(s)                               : 2 channels\r\nChannel positions                        : Front: L R\r\nSampling rate                            : 48.0 kHz\r\nFrame rate                               : 46.875 FPS (1024 SPF)\r\nCompression mode                         : Lossy\r\nStream size                              : 68.7 MiB (7%)\r\nLanguage                                 : English","last_updated":"2018-09-22T12:36:50.067Z","parsed":{"xt":"urn:btih:088b0c542422d316e46db9e710cabca09b232580","dn":"Cradle of Champions 2018 720p WEB-DL x264 ESub [MW]","tr":["udp://exodus.desync.com:6969","udp://open.demonii.com:1337","udp://tracker.coppersurfer.tk:6969","udp://tracker.leechers-paradise.org:6969","udp://zer0day.ch:1337"],"infoHash":"088b0c542422d316e46db9e710cabca09b232580","infoHashBuffer":{"type":"Buffer","data":[8,139,12,84,36,34,211,22,228,109,185,231,16,202,188,160,155,35,37,128]},"name":"Cradle of Champions 2018 720p WEB-DL x264 ESub [MW]","announce":["udp://exodus.desync.com:6969","udp://open.demonii.com:1337","udp://tracker.coppersurfer.tk:6969","udp://tracker.leechers-paradise.org:6969","udp://zer0day.ch:1337"],"urlList":[]}}